<?xml version="1.0" encoding="utf-8"?>
<!-- Generator: Adobe Illustrator 26.0.1, SVG Export Plug-In . SVG Version: 6.00 Build 0)  -->
<svg version="1.1" id="Layer_1" xmlns="http://www.w3.org/2000/svg" xmlns:xlink="http://www.w3.org/1999/xlink" x="0px" y="0px"
	 viewBox="0 0 16 16" style="enable-background:new 0 0 16 16;" xml:space="preserve">
<style type="text/css">
	.st0{fill:#C02026;}
	.st1{fill:#E51E26;}
</style>
<path class="st0" d="M9.22,9.69v2.47c0,0.99-0.41,1.48-1.22,1.48s-1.22-0.49-1.22-1.48v-4.7C5.87,6.54,5.06,5.58,4.42,4.44v7.57
	c0,1.2,0.31,2.13,0.92,2.78c0.61,0.66,1.5,0.99,2.65,0.99s2.04-0.33,2.66-0.99c0.61-0.66,0.92-1.58,0.92-2.78v-0.15
	C10.79,11.09,10,10.38,9.22,9.69z"/>
<path class="st1" d="M6.78,3.97C6.78,2.99,7.19,2.5,8,2.5s1.22,0.49,1.22,1.48v5.71c0.78,0.69,1.57,1.4,2.35,2.17V4.12
	c0-1.2-0.31-2.13-0.92-2.78C10.04,0.68,9.16,0.36,8,0.36S5.96,0.68,5.35,1.34C4.73,2,4.42,2.92,4.42,4.12v0.31
	c0.63,1.13,1.45,2.1,2.35,3.01V3.97z"/>
</svg>
